<svg version="1.1" xmlns="http://www.w3.org/2000/svg" viewBox="0 0 586 87" width="586" height="87">
  <!-- svg-source:excalidraw -->
  
  <defs>
    <style class="style-fonts">
      @font-face {
        font-family: "Virgil";
        src: url("https://excalidraw.com/Virgil.woff2");
      }
      @font-face {
        font-family: "Cascadia";
        src: url("https://excalidraw.com/Cascadia.woff2");
      }
    </style>
    
  </defs>
  <rect x="0" y="0" width="586" height="87" fill="#ffffff"></rect><g stroke-linecap="round" transform="translate(9.999999999999943 10) rotate(0 283 33.5)"><path d="M16.8 -3.11 L553.19 0.47 L562.97 6.58 L564.83 11.63 L565.25 56.04 L563.1 66.36 L550.54 70.04 L13 69.52 L2.55 60.93 L-1.25 53.66 L-3.39 19.35 L4 3.11 L16.11 1.58" stroke="none" stroke-width="0" fill="#ffc9c9"></path><path d="M16.75 0 M16.75 0 C144.65 0.5, 271.19 0.62, 549.25 0 M16.75 0 C191.67 3.51, 366.61 3.01, 549.25 0 M549.25 0 C560.36 -3.53, 567.67 7.18, 566 16.75 M549.25 0 C560.41 -3.52, 566.03 1.03, 566 16.75 M566 16.75 C568.47 22.18, 562.16 35.17, 566 50.25 M566 16.75 C567.37 30, 566.01 44.46, 566 50.25 M566 50.25 C565.52 64.99, 563.34 67.86, 549.25 67 M566 50.25 C565.14 56.93, 558.02 63.14, 549.25 67 M549.25 67 C415.8 66.03, 282.3 64.16, 16.75 67 M549.25 67 C383.77 69.12, 219.89 68.8, 16.75 67 M16.75 67 C7 65.39, 0.37 64.9, 0 50.25 M16.75 67 C5.96 69.15, -1.97 60.8, 0 50.25 M0 50.25 C-2.88 39.56, -1.21 27.2, 0 16.75 M0 50.25 C1.33 39, -0.54 31.41, 0 16.75 M0 16.75 C-2.05 4.51, 8.15 0.35, 16.75 0 M0 16.75 C4.38 3.58, 7.3 2.16, 16.75 0" stroke="#1e1e1e" stroke-width="4" fill="none"></path></g><g transform="translate(36.21032714843744 29.475352995986242) rotate(0 256.7896728515625 14.024647004013758)"><text x="256.7896728515625" y="0" font-family="Virgil, Segoe UI Emoji" font-size="22.43943520642202px" fill="#1e1e1e" text-anchor="middle" style="white-space: pre;" direction="ltr" dominant-baseline="text-before-edge">Test Automation and Devops Technical Lead </text></g></svg>
